# xmcd
#
# Track frame offsets:
#	150
#	15419
#	31078
#	44975
#	63797
#	76872
#	100298
#	114362
#	125591
#	143723
#	158630
#	172931
#	186256
#
# Disc length: 2503 seconds
#
# Revision: 0
# Processed by: cddbd v1.5.2PL0 Copyright (c) Steve Scherf et al.
# Submitted via: EasyCDDAExtractor 2011.0.0.0
#
DISCID=9e09c50d
DTITLE=George Thorogood - 2120 South Michigan Ave.
DYEAR=2011
DGENRE=
TTITLE0=Going Back
TTITLE1=Hi-Heel Sneakers
TTITLE2=Seventh Son
TTITLE3=Spoonful
TTITLE4=Let It Rock
TTITLE5=Two Trains Running (Still A Fool)
TTITLE6=Bo Diddley
TTITLE7=Mama Talk To Your Daughter
TTITLE8=Help Me
TTITLE9=My Babe
TTITLE10=Willie Dixon's Gone
TTITLE11=Chicago Bound
TTITLE12=2120 South Michigan Ave
EXTD=
EXTT0=
EXTT1=
EXTT2=
EXTT3=
EXTT4=
EXTT5=
EXTT6=
EXTT7=
EXTT8=
EXTT9=
EXTT10=
EXTT11=
EXTT12=
PLAYORDER=
